<?xml version="1.0" standalone="no"?>
<!DOCTYPE svg PUBLIC "-//W3C//DTD SVG 20010904//EN"
 "http://www.w3.org/TR/2001/REC-SVG-20010904/DTD/svg10.dtd">
<svg version="1.0" xmlns="http://www.w3.org/2000/svg"
 width="700.000000pt" height="700.000000pt" viewBox="0 0 700.000000 700.000000"
 preserveAspectRatio="xMidYMid meet">
<metadata>
Created by potrace 1.11, written by Peter Selinger 2001-2013
</metadata>
<g transform="translate(0.000000,700.000000) scale(0.100000,-0.100000)"
fill="#000000" stroke="none">
<path d="M4344 6190 c-41 -6 -311 -107 -439 -165 -29 -13 -199 -84 -652 -270
-115 -47 -217 -90 -228 -95 -16 -8 -388 -161 -815 -337 -188 -77 -252 -114
-321 -182 -73 -73 -128 -165 -154 -256 -23 -78 -27 -205 -10 -278 11 -49 77
-220 136 -353 10 -22 27 -63 37 -90 11 -27 69 -168 130 -314 270 -650 577
-1390 597 -1440 42 -104 113 -275 163 -395 28 -66 105 -253 172 -415 67 -162
140 -338 161 -390 22 -52 43 -104 48 -115 53 -131 90 -193 156 -259 116 -118
257 -178 414 -177 108 0 175 19 356 95 61 26 142 60 182 76 39 16 91 38 115
49 24 11 90 39 148 62 58 23 123 49 145 59 43 19 965 401 1255 520 96 39 203
87 236 106 103 57 214 184 249 284 1 3 4 12 8 20 33 85 43 195 27 291 -10 61
-105 311 -195 514 -8 17 -66 158 -130 315 -65 157 -125 303 -135 325 -10 22
-55 130 -100 240 -45 110 -131 317 -190 460 -59 143 -152 366 -205 495 -53
129 -102 249 -110 265 -26 58 -165 396 -165 400 0 2 -11 28 -24 57 -13 29 -42
100 -66 158 -23 58 -48 119 -55 135 -8 17 -39 91 -70 164 -82 199 -131 266
-257 352 -108 74 -272 109 -414 89z m-1919 -1190 c58 -28 107 -78 137 -139 32
-65 32 -177 0 -242 -49 -101 -135 -158 -248 -166 -62 -5 -79 -2 -125 19 -77
36 -114 71 -149 142 -39 78 -43 158 -12 236 30 75 116 151 195 171 53 14 152
3 202 -21z"/>
<path d="M1042 3528 c-46 -112 -90 -216 -97 -233 -46 -107 -77 -182 -220 -530
-48 -115 -93 -223 -100 -240 -7 -16 -23 -54 -35 -84 -11 -30 -30 -74 -41 -97
-10 -24 -19 -46 -19 -49 0 -4 -7 -21 -15 -38 -40 -87 -107 -257 -119 -301 -17
-68 -20 -193 -6 -264 16 -75 58 -167 108 -233 83 -112 135 -145 406 -259 120
-50 220 -89 222 -87 2 2 3 592 2 1311 l-3 1307 -83 -203z"/>
<path d="M1716 2118 c0 -1056 -2 -1006 67 -1147 73 -151 258 -284 425 -307 34
-5 512 -13 512 -8 0 3 -154 381 -179 439 -23 53 -46 109 -146 350 -59 143
-113 274 -120 290 -7 17 -26 62 -41 100 -15 39 -31 74 -35 80 -5 5 -9 15 -9
22 0 7 -11 36 -24 65 -13 29 -61 143 -106 253 -45 110 -88 214 -95 230 -8 17
-35 82 -60 145 -26 63 -53 129 -60 145 -33 78 -65 156 -91 222 -16 40 -31 73
-34 73 -3 0 -5 -429 -4 -952z"/>
</g>
</svg>
